# xmcd
#
# Track frame offsets:
# 150
# 10856
# 27720
# 44835
# 63984
# 83492
# 100551
# 119700
# 134419
# 149193
# 164525
# 179522
# 196999
#
# Disc length: 2825 seconds
#
#
# Revision: 0
# Processed by: cddbd v1.5.1PL0 Copyright (c) Steve Scherf et al.
# Submitted via: FreeRIP 2.90 
#
DISCID=c30b070d
DTITLE=Heidi Hauge - Countrygirl
DYEAR=2002
DGENRE=Country
TTITLE0=I`m Gonna Be A Country Girl Ag
TTITLE1=blue Rose Is
TTITLE2=Blanket On The Ground
TTITLE3=I Don`t Wanna Play House
TTITLE4=That`ll Be Me
TTITLE5=When You Let Go Of Me
TTITLE6=You Got Gold
TTITLE7=Honkey Tonk Angels
TTITLE8=One Way Street
TTITLE9=Don`t Tell Me What To Do
TTITLE10=A Song I Can Sing
TTITLE11=Take Me Back
TTITLE12=Coal Miners Doughter
EXTD=
EXTT0=
EXTT1=
EXTT2=
EXTT3=
EXTT4=
EXTT5=
EXTT6=
EXTT7=
EXTT8=
EXTT9=
EXTT10=
EXTT11=
EXTT12=
PLAYORDER=
